<svg width="25" height="25" viewBox="0 0 25 25" fill="none" xmlns="http://www.w3.org/2000/svg">
<path d="M20.3125 12.5H4.6875C3.35938 12.5 2.34375 11.4844 2.34375 10.1562C2.34375 8.82812 3.35938 7.8125 4.6875 7.8125H20.3125C21.6406 7.8125 22.6562 8.82812 22.6562 10.1562C22.6562 11.4844 21.6406 12.5 20.3125 12.5Z" fill="#5B53F1"/>
<path d="M20.8594 11.1719C20.7812 11.0156 20.5469 10.9375 20.3125 10.9375H4.6875C4.45312 10.9375 4.21875 11.0156 4.14063 11.1719C3.98438 11.4063 3.90625 11.5625 3.90625 11.7969L5.46875 24.2969C5.54688 24.6875 5.85938 25 6.25 25H10.1562C9.76562 25 9.375 24.6875 9.375 24.2969L8.59375 13.3594C8.59375 12.8906 8.90625 12.5781 9.29687 12.5C9.76562 12.5 10.0781 12.8125 10.1562 13.2031L10.9375 24.1406C10.9375 24.6094 10.625 24.9219 10.2344 25C10.2344 25 10.2344 25 10.1562 25H14.8438C14.8438 25 14.8438 25 14.7656 25C14.2969 25 13.9844 24.6094 14.0625 24.1406C14.1406 23.6719 14.8438 13.2031 14.8438 13.2031C14.8438 12.7344 15.2344 12.4219 15.7031 12.5C16.1719 12.5 16.4844 12.8906 16.4062 13.3594C16.4062 13.3594 15.625 23.9062 15.625 24.2969C15.625 24.6875 15.2344 25 14.8438 25H18.75C19.1406 25 19.4531 24.6875 19.5312 24.2969L21.0938 11.7969C21.0938 11.5625 21.0156 11.4063 20.8594 11.1719Z" fill="#5B53F1"/>
<path d="M20.1562 9.375H4.84375C4.53125 9.375 4.21875 9.14062 4.14063 8.82812C3.98438 8.51562 3.90625 8.20312 3.90625 7.8125C3.90625 6.64062 4.53125 5.625 5.46875 5.07812C5.46875 5 5.46875 4.84375 5.46875 4.6875C5.46875 2.96875 6.875 1.5625 8.59375 1.5625C8.98438 1.5625 9.375 1.64062 9.6875 1.79688C10.2344 0.703125 11.25 0 12.5 0C13.75 0 14.7656 0.703125 15.3125 1.79688C15.625 1.64062 16.0156 1.5625 16.4062 1.5625C18.125 1.5625 19.5312 2.96875 19.5312 4.6875C19.5312 4.84375 19.5312 5 19.5312 5.07812C20.4688 5.625 21.0938 6.64062 21.0938 7.8125C21.0938 8.20312 21.0156 8.51562 20.9375 8.82812C20.7812 9.14062 20.5469 9.375 20.1562 9.375ZM5.46875 7.8125H19.5312C19.5312 7.10938 19.0625 6.48438 18.3594 6.32813C18.125 6.25 17.9688 6.09375 17.8906 5.9375C17.8125 5.70312 17.8125 5.46875 17.8906 5.3125C17.9688 5.07812 17.9688 4.84375 17.9688 4.6875C17.9688 3.82812 17.2656 3.125 16.4062 3.125C16.0156 3.125 15.625 3.28125 15.3906 3.51562C15.1563 3.75 14.8438 3.75 14.6094 3.67187C14.2969 3.59375 14.0625 3.28125 14.0625 3.04688C13.9844 2.1875 13.2812 1.5625 12.5 1.5625C11.7188 1.5625 11.0156 2.1875 10.9375 3.04688C10.9375 3.35938 10.7031 3.59375 10.4687 3.75C10.1562 3.82813 9.84375 3.82812 9.6875 3.59375C9.375 3.28125 8.98438 3.125 8.59375 3.125C7.73438 3.125 7.03125 3.82812 7.03125 4.6875C7.03125 4.84375 7.03125 5.07812 7.10938 5.23438C7.1875 5.46875 7.1875 5.70312 7.10938 5.85938C7.03125 6.09375 6.875 6.25 6.64062 6.32813C5.9375 6.48438 5.46875 7.10938 5.46875 7.8125Z" fill="#5B53F1"/>
</svg>