<svg width="119" height="25" viewBox="0 0 119 25" fill="none" xmlns="http://www.w3.org/2000/svg">
<path d="M20.3125 12.5H4.6875C3.35938 12.5 2.34375 11.4844 2.34375 10.1562C2.34375 8.82812 3.35938 7.8125 4.6875 7.8125H20.3125C21.6406 7.8125 22.6562 8.82812 22.6562 10.1562C22.6562 11.4844 21.6406 12.5 20.3125 12.5Z" fill="#5B53F1"/>
<path d="M20.8594 11.1719C20.7812 11.0156 20.5469 10.9375 20.3125 10.9375H4.6875C4.45312 10.9375 4.21875 11.0156 4.14063 11.1719C3.98438 11.4063 3.90625 11.5625 3.90625 11.7969L5.46875 24.2969C5.54688 24.6875 5.85938 25 6.25 25H10.1562C9.76562 25 9.375 24.6875 9.375 24.2969L8.59375 13.3594C8.59375 12.8906 8.90625 12.5781 9.29687 12.5C9.76562 12.5 10.0781 12.8125 10.1562 13.2031L10.9375 24.1406C10.9375 24.6094 10.625 24.9219 10.2344 25C10.2344 25 10.2344 25 10.1562 25H14.8438C14.8438 25 14.8438 25 14.7656 25C14.2969 25 13.9844 24.6094 14.0625 24.1406C14.1406 23.6719 14.8438 13.2031 14.8438 13.2031C14.8438 12.7344 15.2344 12.4219 15.7031 12.5C16.1719 12.5 16.4844 12.8906 16.4062 13.3594C16.4062 13.3594 15.625 23.9062 15.625 24.2969C15.625 24.6875 15.2344 25 14.8438 25H18.75C19.1406 25 19.4531 24.6875 19.5312 24.2969L21.0938 11.7969C21.0938 11.5625 21.0156 11.4063 20.8594 11.1719Z" fill="#5B53F1"/>
<path d="M20.1562 9.375H4.84375C4.53125 9.375 4.21875 9.14062 4.14063 8.82812C3.98438 8.51562 3.90625 8.20312 3.90625 7.8125C3.90625 6.64062 4.53125 5.625 5.46875 5.07812C5.46875 5 5.46875 4.84375 5.46875 4.6875C5.46875 2.96875 6.875 1.5625 8.59375 1.5625C8.98438 1.5625 9.375 1.64062 9.6875 1.79688C10.2344 0.703125 11.25 0 12.5 0C13.75 0 14.7656 0.703125 15.3125 1.79688C15.625 1.64062 16.0156 1.5625 16.4062 1.5625C18.125 1.5625 19.5312 2.96875 19.5312 4.6875C19.5312 4.84375 19.5312 5 19.5312 5.07812C20.4688 5.625 21.0938 6.64062 21.0938 7.8125C21.0938 8.20312 21.0156 8.51562 20.9375 8.82812C20.7812 9.14062 20.5469 9.375 20.1562 9.375ZM5.46875 7.8125H19.5312C19.5312 7.10938 19.0625 6.48438 18.3594 6.32813C18.125 6.25 17.9688 6.09375 17.8906 5.9375C17.8125 5.70312 17.8125 5.46875 17.8906 5.3125C17.9688 5.07812 17.9688 4.84375 17.9688 4.6875C17.9688 3.82812 17.2656 3.125 16.4062 3.125C16.0156 3.125 15.625 3.28125 15.3906 3.51562C15.1563 3.75 14.8438 3.75 14.6094 3.67187C14.2969 3.59375 14.0625 3.28125 14.0625 3.04688C13.9844 2.1875 13.2812 1.5625 12.5 1.5625C11.7188 1.5625 11.0156 2.1875 10.9375 3.04688C10.9375 3.35938 10.7031 3.59375 10.4687 3.75C10.1562 3.82813 9.84375 3.82812 9.6875 3.59375C9.375 3.28125 8.98438 3.125 8.59375 3.125C7.73438 3.125 7.03125 3.82812 7.03125 4.6875C7.03125 4.84375 7.03125 5.07812 7.10938 5.23438C7.1875 5.46875 7.1875 5.70312 7.10938 5.85938C7.03125 6.09375 6.875 6.25 6.64062 6.32813C5.9375 6.48438 5.46875 7.10938 5.46875 7.8125Z" fill="#5B53F1"/>
<path d="M26.8807 10.3636H30.3636L33.3182 17.5682H33.4545L36.4091 10.3636H39.892V22H37.1534V14.8523H37.0568L34.2614 21.9261H32.5114L29.7159 14.8125H29.6193V22H26.8807V10.3636ZM53.2693 16.1818C53.2693 17.4621 53.023 18.5473 52.5306 19.4375C52.0382 20.3277 51.3715 21.0038 50.5306 21.4659C49.6935 21.928 48.7541 22.1591 47.7124 22.1591C46.667 22.1591 45.7257 21.9261 44.8886 21.4602C44.0515 20.9943 43.3867 20.3182 42.8943 19.4318C42.4056 18.5417 42.1613 17.4583 42.1613 16.1818C42.1613 14.9015 42.4056 13.8163 42.8943 12.9261C43.3867 12.036 44.0515 11.3598 44.8886 10.8977C45.7257 10.4356 46.667 10.2045 47.7124 10.2045C48.7541 10.2045 49.6935 10.4356 50.5306 10.8977C51.3715 11.3598 52.0382 12.036 52.5306 12.9261C53.023 13.8163 53.2693 14.9015 53.2693 16.1818ZM50.3943 16.1818C50.3943 15.4242 50.2863 14.7841 50.0704 14.2614C49.8583 13.7386 49.5515 13.3428 49.1499 13.0739C48.7522 12.8049 48.273 12.6705 47.7124 12.6705C47.1556 12.6705 46.6765 12.8049 46.2749 13.0739C45.8734 13.3428 45.5647 13.7386 45.3488 14.2614C45.1367 14.7841 45.0306 15.4242 45.0306 16.1818C45.0306 16.9394 45.1367 17.5795 45.3488 18.1023C45.5647 18.625 45.8734 19.0208 46.2749 19.2898C46.6765 19.5587 47.1556 19.6932 47.7124 19.6932C48.273 19.6932 48.7522 19.5587 49.1499 19.2898C49.5515 19.0208 49.8583 18.625 50.0704 18.1023C50.2863 17.5795 50.3943 16.9394 50.3943 16.1818ZM57.5059 10.3636L60.1081 18.8864H60.2047L62.807 10.3636H65.9547L62.0286 22H58.2843L54.3581 10.3636H57.5059ZM70.6601 10.3636V22H67.8476V10.3636H70.6601ZM73.0657 22V10.3636H81.1793V12.6477H75.8782V15.0341H80.7645V17.3239H75.8782V19.7159H81.1793V22H73.0657Z" fill="black"/>
<path d="M83.5807 22V10.3636H86.3932V15.0341H90.9784V10.3636H93.7852V22H90.9784V17.3239H86.3932V22H83.5807ZM103.229 10.3636H106.036V17.8693C106.036 18.7367 105.83 19.4924 105.417 20.1364C105.004 20.7765 104.428 21.2727 103.689 21.625C102.951 21.9735 102.093 22.1477 101.116 22.1477C100.127 22.1477 99.2633 21.9735 98.5247 21.625C97.786 21.2727 97.2122 20.7765 96.8031 20.1364C96.394 19.4924 96.1894 18.7367 96.1894 17.8693V10.3636H99.0019V17.625C99.0019 18.0265 99.089 18.3845 99.2633 18.6989C99.4413 19.0133 99.6894 19.2595 100.008 19.4375C100.326 19.6155 100.695 19.7045 101.116 19.7045C101.536 19.7045 101.903 19.6155 102.218 19.4375C102.536 19.2595 102.784 19.0133 102.962 18.6989C103.14 18.3845 103.229 18.0265 103.229 17.625V10.3636ZM108.439 22V10.3636H113.291C114.162 10.3636 114.891 10.4867 115.479 10.733C116.069 10.9792 116.513 11.3239 116.808 11.767C117.107 12.2102 117.257 12.7235 117.257 13.3068C117.257 13.75 117.164 14.1458 116.979 14.4943C116.793 14.839 116.537 15.125 116.212 15.3523C115.886 15.5795 115.509 15.7386 115.081 15.8295V15.9432C115.551 15.9659 115.984 16.0928 116.382 16.3239C116.784 16.5549 117.105 16.8769 117.348 17.2898C117.59 17.6989 117.712 18.1837 117.712 18.7443C117.712 19.3693 117.552 19.928 117.234 20.4205C116.916 20.9091 116.456 21.2955 115.854 21.5795C115.251 21.8598 114.52 22 113.66 22H108.439ZM111.251 19.733H112.99C113.6 19.733 114.049 19.6174 114.337 19.3864C114.628 19.1553 114.774 18.8333 114.774 18.4205C114.774 18.1212 114.704 17.8636 114.564 17.6477C114.424 17.428 114.225 17.2595 113.967 17.142C113.71 17.0208 113.401 16.9602 113.041 16.9602H111.251V19.733ZM111.251 15.1477H112.808C113.115 15.1477 113.388 15.0966 113.626 14.9943C113.865 14.892 114.051 14.7443 114.183 14.5511C114.319 14.358 114.388 14.125 114.388 13.8523C114.388 13.4621 114.249 13.1553 113.973 12.9318C113.696 12.7083 113.323 12.5966 112.854 12.5966H111.251V15.1477Z" fill="#5B53F1"/>
</svg>
